<mxfile host="app.diagrams.net" agent="Mozilla/5.0 (Windows NT 10.0; Win64; x64) AppleWebKit/537.36 (KHTML, like Gecko) Chrome/135.0.0.0 Safari/537.36" version="26.2.14">
  <diagram name="Page-1" id="Edj6D4vppkLDYpnddNf1">
    <mxGraphModel dx="464" dy="742" grid="1" gridSize="10" guides="1" tooltips="1" connect="1" arrows="1" fold="1" page="1" pageScale="1" pageWidth="850" pageHeight="1100" background="none" math="0" shadow="0">
      <root>
        <mxCell id="0" />
        <mxCell id="1" parent="0" />
        <mxCell id="o2yET6NaB_C4wVVpLFFw-1" value="" style="shape=umlBoundary;whiteSpace=wrap;html=1;" parent="1" vertex="1">
          <mxGeometry x="260" y="127" width="60" height="46" as="geometry" />
        </mxCell>
        <mxCell id="o2yET6NaB_C4wVVpLFFw-2" value="Tenant List" style="ellipse;shape=umlEntity;whiteSpace=wrap;html=1;" parent="1" vertex="1">
          <mxGeometry x="650" y="224" width="100" height="102" as="geometry" />
        </mxCell>
        <mxCell id="o2yET6NaB_C4wVVpLFFw-3" value="Display" style="ellipse;shape=umlControl;whiteSpace=wrap;html=1;" parent="1" vertex="1">
          <mxGeometry x="540" y="123" width="50" height="54" as="geometry" />
        </mxCell>
        <mxCell id="o2yET6NaB_C4wVVpLFFw-4" value="Manager" style="shape=umlActor;verticalLabelPosition=bottom;verticalAlign=top;html=1;" parent="1" vertex="1">
          <mxGeometry x="70" y="120" width="30" height="60" as="geometry" />
        </mxCell>
        <mxCell id="o2yET6NaB_C4wVVpLFFw-5" value="Change Tenant" style="ellipse;whiteSpace=wrap;html=1;" parent="1" vertex="1">
          <mxGeometry x="20" y="10" width="140" height="70" as="geometry" />
        </mxCell>
        <mxCell id="o2yET6NaB_C4wVVpLFFw-9" value="" style="line;strokeWidth=1;fillColor=none;align=left;verticalAlign=middle;spacingTop=-1;spacingLeft=3;spacingRight=3;rotatable=0;labelPosition=right;points=[];portConstraint=eastwest;strokeColor=inherit;" parent="1" vertex="1">
          <mxGeometry x="110" y="146" width="150" height="8" as="geometry" />
        </mxCell>
        <mxCell id="o2yET6NaB_C4wVVpLFFw-13" value="Selects Change Tenant" style="text;html=1;align=center;verticalAlign=middle;resizable=0;points=[];autosize=1;strokeColor=none;fillColor=none;" parent="1" vertex="1">
          <mxGeometry x="125" y="127" width="150" height="30" as="geometry" />
        </mxCell>
        <mxCell id="o2yET6NaB_C4wVVpLFFw-14" value="Manager Home Screen" style="text;html=1;align=center;verticalAlign=middle;resizable=0;points=[];autosize=1;strokeColor=none;fillColor=none;" parent="1" vertex="1">
          <mxGeometry x="215" y="100" width="150" height="30" as="geometry" />
        </mxCell>
        <mxCell id="o2yET6NaB_C4wVVpLFFw-16" value="" style="shape=umlBoundary;whiteSpace=wrap;html=1;" parent="1" vertex="1">
          <mxGeometry x="260" y="246" width="60" height="46" as="geometry" />
        </mxCell>
        <mxCell id="o2yET6NaB_C4wVVpLFFw-17" value="Tenant/Apartment&lt;div&gt;Manager Screen&lt;/div&gt;" style="text;html=1;align=center;verticalAlign=middle;resizable=0;points=[];autosize=1;strokeColor=none;fillColor=none;" parent="1" vertex="1">
          <mxGeometry x="245" y="206" width="120" height="40" as="geometry" />
        </mxCell>
        <mxCell id="o2yET6NaB_C4wVVpLFFw-20" value="" style="endArrow=none;html=1;rounded=0;exitX=-0.022;exitY=0.518;exitDx=0;exitDy=0;exitPerimeter=0;entryX=0.024;entryY=0.775;entryDx=0;entryDy=0;entryPerimeter=0;" parent="1" source="o2yET6NaB_C4wVVpLFFw-16" target="o2yET6NaB_C4wVVpLFFw-9" edge="1">
          <mxGeometry width="50" height="50" relative="1" as="geometry">
            <mxPoint x="530" y="246" as="sourcePoint" />
            <mxPoint x="120" y="160" as="targetPoint" />
          </mxGeometry>
        </mxCell>
        <mxCell id="o2yET6NaB_C4wVVpLFFw-21" value="Selects Remove" style="text;html=1;align=center;verticalAlign=middle;resizable=0;points=[];autosize=1;strokeColor=none;fillColor=none;rotation=40;" parent="1" vertex="1">
          <mxGeometry x="145" y="194" width="110" height="30" as="geometry" />
        </mxCell>
        <mxCell id="o2yET6NaB_C4wVVpLFFw-24" value="Load" style="ellipse;shape=umlControl;whiteSpace=wrap;html=1;" parent="1" vertex="1">
          <mxGeometry x="490" y="270" width="60" height="64" as="geometry" />
        </mxCell>
        <mxCell id="4zSn7JIIVfaxJaeZ2S0K-1" value="" style="shape=umlBoundary;whiteSpace=wrap;html=1;" parent="1" vertex="1">
          <mxGeometry x="240" y="424" width="60" height="46" as="geometry" />
        </mxCell>
        <mxCell id="4zSn7JIIVfaxJaeZ2S0K-2" value="Tenant List Screen" style="text;html=1;align=center;verticalAlign=middle;resizable=0;points=[];autosize=1;strokeColor=none;fillColor=none;" parent="1" vertex="1">
          <mxGeometry x="220" y="390" width="120" height="30" as="geometry" />
        </mxCell>
        <mxCell id="4zSn7JIIVfaxJaeZ2S0K-4" value="" style="endArrow=none;html=1;rounded=0;entryX=0;entryY=1;entryDx=0;entryDy=0;exitX=1.056;exitY=0.641;exitDx=0;exitDy=0;exitPerimeter=0;" parent="1" source="o2yET6NaB_C4wVVpLFFw-24" target="o2yET6NaB_C4wVVpLFFw-2" edge="1">
          <mxGeometry width="50" height="50" relative="1" as="geometry">
            <mxPoint x="341" y="289" as="sourcePoint" />
            <mxPoint x="566" y="189" as="targetPoint" />
          </mxGeometry>
        </mxCell>
        <mxCell id="4zSn7JIIVfaxJaeZ2S0K-6" value="Display" style="ellipse;shape=umlControl;whiteSpace=wrap;html=1;" parent="1" vertex="1">
          <mxGeometry x="410" y="350" width="50" height="54" as="geometry" />
        </mxCell>
        <mxCell id="4zSn7JIIVfaxJaeZ2S0K-10" value="" style="endArrow=none;html=1;rounded=0;exitX=0.006;exitY=0.558;exitDx=0;exitDy=0;exitPerimeter=0;" parent="1" source="4zSn7JIIVfaxJaeZ2S0K-1" edge="1">
          <mxGeometry width="50" height="50" relative="1" as="geometry">
            <mxPoint x="540" y="337" as="sourcePoint" />
            <mxPoint x="110" y="150" as="targetPoint" />
          </mxGeometry>
        </mxCell>
        <mxCell id="4zSn7JIIVfaxJaeZ2S0K-11" value="&lt;div&gt;&lt;br&gt;&lt;/div&gt;&lt;div&gt;&lt;br&gt;&lt;/div&gt;" style="edgeLabel;html=1;align=center;verticalAlign=middle;resizable=0;points=[];" parent="4zSn7JIIVfaxJaeZ2S0K-10" vertex="1" connectable="0">
          <mxGeometry x="0.4239" y="-3" relative="1" as="geometry">
            <mxPoint as="offset" />
          </mxGeometry>
        </mxCell>
        <mxCell id="4zSn7JIIVfaxJaeZ2S0K-12" value="Selects Tenant and Confirms" style="text;html=1;align=center;verticalAlign=middle;resizable=0;points=[];autosize=1;strokeColor=none;fillColor=none;rotation=65;" parent="1" vertex="1">
          <mxGeometry x="105" y="287" width="180" height="30" as="geometry" />
        </mxCell>
        <mxCell id="4zSn7JIIVfaxJaeZ2S0K-35" value="Delete" style="ellipse;shape=umlControl;whiteSpace=wrap;html=1;" parent="1" vertex="1">
          <mxGeometry x="385" y="460" width="70" height="80" as="geometry" />
        </mxCell>
        <mxCell id="4zSn7JIIVfaxJaeZ2S0K-38" value="" style="shape=umlBoundary;whiteSpace=wrap;html=1;" parent="1" vertex="1">
          <mxGeometry x="240" y="670" width="100" height="80" as="geometry" />
        </mxCell>
        <mxCell id="4zSn7JIIVfaxJaeZ2S0K-40" value="&lt;span style=&quot;text-wrap-mode: wrap;&quot;&gt;New&amp;nbsp;&lt;/span&gt;&lt;span style=&quot;background-color: transparent; color: light-dark(rgb(0, 0, 0), rgb(255, 255, 255)); text-wrap-mode: wrap;&quot;&gt;Tenant&amp;nbsp;&lt;/span&gt;&lt;div&gt;&lt;span style=&quot;background-color: transparent; color: light-dark(rgb(0, 0, 0), rgb(255, 255, 255)); text-wrap-mode: wrap;&quot;&gt;Add&amp;nbsp;&lt;/span&gt;&lt;span style=&quot;background-color: transparent; color: light-dark(rgb(0, 0, 0), rgb(255, 255, 255)); text-wrap-mode: wrap;&quot;&gt;Screen&lt;/span&gt;&lt;/div&gt;" style="text;html=1;align=center;verticalAlign=middle;resizable=0;points=[];autosize=1;strokeColor=none;fillColor=none;" parent="1" vertex="1">
          <mxGeometry x="240" y="630" width="90" height="40" as="geometry" />
        </mxCell>
        <mxCell id="4zSn7JIIVfaxJaeZ2S0K-42" value="" style="endArrow=none;html=1;rounded=0;exitX=0.009;exitY=0.593;exitDx=0;exitDy=0;exitPerimeter=0;" parent="1" source="4zSn7JIIVfaxJaeZ2S0K-44" edge="1">
          <mxGeometry width="50" height="50" relative="1" as="geometry">
            <mxPoint x="180" y="600" as="sourcePoint" />
            <mxPoint x="110" y="150" as="targetPoint" />
          </mxGeometry>
        </mxCell>
        <mxCell id="4zSn7JIIVfaxJaeZ2S0K-43" value="&lt;div&gt;&lt;br&gt;&lt;/div&gt;&lt;div&gt;&lt;br&gt;&lt;/div&gt;" style="edgeLabel;html=1;align=center;verticalAlign=middle;resizable=0;points=[];" parent="4zSn7JIIVfaxJaeZ2S0K-42" vertex="1" connectable="0">
          <mxGeometry x="0.4239" y="-3" relative="1" as="geometry">
            <mxPoint as="offset" />
          </mxGeometry>
        </mxCell>
        <mxCell id="4zSn7JIIVfaxJaeZ2S0K-45" value="" style="endArrow=none;html=1;rounded=0;exitX=0.009;exitY=0.593;exitDx=0;exitDy=0;exitPerimeter=0;" parent="1" source="4zSn7JIIVfaxJaeZ2S0K-38" target="4zSn7JIIVfaxJaeZ2S0K-44" edge="1">
          <mxGeometry width="50" height="50" relative="1" as="geometry">
            <mxPoint x="241" y="767" as="sourcePoint" />
            <mxPoint x="110" y="150" as="targetPoint" />
          </mxGeometry>
        </mxCell>
        <mxCell id="4zSn7JIIVfaxJaeZ2S0K-44" value="Inserts New Tenant Information" style="text;html=1;align=center;verticalAlign=middle;resizable=0;points=[];autosize=1;strokeColor=none;fillColor=none;rotation=75;" parent="1" vertex="1">
          <mxGeometry x="85" y="440" width="190" height="30" as="geometry" />
        </mxCell>
        <mxCell id="4zSn7JIIVfaxJaeZ2S0K-49" value="Information&lt;div&gt;Check&lt;/div&gt;" style="ellipse;shape=umlControl;whiteSpace=wrap;html=1;" parent="1" vertex="1">
          <mxGeometry x="510" y="730" width="70" height="80" as="geometry" />
        </mxCell>
        <mxCell id="4zSn7JIIVfaxJaeZ2S0K-52" value="Display" style="ellipse;shape=umlControl;whiteSpace=wrap;html=1;" parent="1" vertex="1">
          <mxGeometry x="540" y="540" width="70" height="80" as="geometry" />
        </mxCell>
        <mxCell id="4zSn7JIIVfaxJaeZ2S0K-58" value="Correct" style="text;html=1;align=center;verticalAlign=middle;resizable=0;points=[];autosize=1;strokeColor=none;fillColor=none;" parent="1" vertex="1">
          <mxGeometry x="590" y="750" width="60" height="30" as="geometry" />
        </mxCell>
        <mxCell id="4zSn7JIIVfaxJaeZ2S0K-59" value="Add" style="ellipse;shape=umlControl;whiteSpace=wrap;html=1;" parent="1" vertex="1">
          <mxGeometry x="665" y="730" width="70" height="80" as="geometry" />
        </mxCell>
        <mxCell id="4zSn7JIIVfaxJaeZ2S0K-64" value="&lt;font style=&quot;color: light-dark(rgb(0, 0, 0), rgb(255, 0, 0));&quot;&gt;Wrong&lt;/font&gt;" style="text;html=1;align=center;verticalAlign=middle;resizable=0;points=[];autosize=1;strokeColor=none;fillColor=none;" parent="1" vertex="1">
          <mxGeometry x="530" y="810" width="60" height="30" as="geometry" />
        </mxCell>
        <mxCell id="4zSn7JIIVfaxJaeZ2S0K-71" value="Add?" style="ellipse;shape=umlControl;whiteSpace=wrap;html=1;" parent="1" vertex="1">
          <mxGeometry x="370" y="760" width="70" height="80" as="geometry" />
        </mxCell>
        <mxCell id="4zSn7JIIVfaxJaeZ2S0K-74" value="Yes" style="text;html=1;align=center;verticalAlign=middle;resizable=0;points=[];autosize=1;strokeColor=none;fillColor=none;" parent="1" vertex="1">
          <mxGeometry x="440" y="760" width="40" height="30" as="geometry" />
        </mxCell>
        <mxCell id="4zSn7JIIVfaxJaeZ2S0K-76" value="&lt;font style=&quot;color: light-dark(rgb(0, 0, 0), rgb(255, 0, 0));&quot;&gt;No&lt;/font&gt;" style="text;html=1;align=center;verticalAlign=middle;resizable=0;points=[];autosize=1;strokeColor=none;fillColor=none;" parent="1" vertex="1">
          <mxGeometry x="400" y="860" width="40" height="30" as="geometry" />
        </mxCell>
        <mxCell id="4zSn7JIIVfaxJaeZ2S0K-77" value="Check" style="ellipse;shape=umlControl;whiteSpace=wrap;html=1;fillColor=light-dark(#FFFFFF,transparent);strokeColor=light-dark(#000000,#FF0000);" parent="1" vertex="1">
          <mxGeometry x="375" y="900" width="70" height="80" as="geometry" />
        </mxCell>
        <mxCell id="4zSn7JIIVfaxJaeZ2S0K-80" value="Define Tenant" style="ellipse;shape=umlControl;whiteSpace=wrap;html=1;strokeColor=light-dark(#000000,#FF0000);" parent="1" vertex="1">
          <mxGeometry x="375" y="1020" width="70" height="80" as="geometry" />
        </mxCell>
        <mxCell id="2ANkcWensxIjMgZrlnyL-1" value="" style="endArrow=none;html=1;rounded=0;entryX=0.587;entryY=1.025;entryDx=0;entryDy=0;entryPerimeter=0;exitX=0;exitY=0.5;exitDx=0;exitDy=0;exitPerimeter=0;" parent="1" source="4zSn7JIIVfaxJaeZ2S0K-71" target="4zSn7JIIVfaxJaeZ2S0K-38" edge="1">
          <mxGeometry width="50" height="50" relative="1" as="geometry">
            <mxPoint x="460" y="710" as="sourcePoint" />
            <mxPoint x="510" y="660" as="targetPoint" />
          </mxGeometry>
        </mxCell>
        <mxCell id="2ANkcWensxIjMgZrlnyL-3" value="" style="endArrow=none;html=1;rounded=0;entryX=0.445;entryY=1.015;entryDx=0;entryDy=0;entryPerimeter=0;exitX=0.445;exitY=0.164;exitDx=0;exitDy=0;exitPerimeter=0;fillColor=light-dark(transparent,#FF0000);strokeColor=light-dark(#000000,#FF0000);" parent="1" source="2ANkcWensxIjMgZrlnyL-4" target="4zSn7JIIVfaxJaeZ2S0K-49" edge="1">
          <mxGeometry width="50" height="50" relative="1" as="geometry">
            <mxPoint x="516" y="840" as="sourcePoint" />
            <mxPoint x="309" y="762" as="targetPoint" />
          </mxGeometry>
        </mxCell>
        <mxCell id="2ANkcWensxIjMgZrlnyL-4" value="Show Error" style="ellipse;shape=umlControl;whiteSpace=wrap;html=1;strokeColor=light-dark(#000000,#FF0000);" parent="1" vertex="1">
          <mxGeometry x="510" y="840" width="70" height="80" as="geometry" />
        </mxCell>
        <mxCell id="2ANkcWensxIjMgZrlnyL-6" value="" style="endArrow=none;html=1;rounded=0;entryX=0.493;entryY=1.025;entryDx=0;entryDy=0;entryPerimeter=0;exitX=0.421;exitY=0.16;exitDx=0;exitDy=0;exitPerimeter=0;fillColor=light-dark(transparent,#FF0000);strokeColor=light-dark(#000000,#FF0000);" parent="1" source="4zSn7JIIVfaxJaeZ2S0K-77" target="4zSn7JIIVfaxJaeZ2S0K-71" edge="1">
          <mxGeometry width="50" height="50" relative="1" as="geometry">
            <mxPoint x="526" y="839" as="sourcePoint" />
            <mxPoint x="526" y="761" as="targetPoint" />
          </mxGeometry>
        </mxCell>
        <mxCell id="2ANkcWensxIjMgZrlnyL-7" value="" style="endArrow=none;html=1;rounded=0;entryX=0.457;entryY=1.025;entryDx=0;entryDy=0;entryPerimeter=0;exitX=0.456;exitY=0.092;exitDx=0;exitDy=0;exitPerimeter=0;fillColor=light-dark(transparent,#FF0000);strokeColor=light-dark(#000000,#FF0000);" parent="1" source="4zSn7JIIVfaxJaeZ2S0K-80" target="4zSn7JIIVfaxJaeZ2S0K-77" edge="1">
          <mxGeometry width="50" height="50" relative="1" as="geometry">
            <mxPoint x="400" y="1080" as="sourcePoint" />
            <mxPoint x="400" y="1002" as="targetPoint" />
          </mxGeometry>
        </mxCell>
        <mxCell id="2ANkcWensxIjMgZrlnyL-8" value="" style="endArrow=none;html=1;rounded=0;exitX=1.005;exitY=0.577;exitDx=0;exitDy=0;exitPerimeter=0;fillColor=light-dark(transparent,#FF0000);strokeColor=light-dark(#000000,#FF0000);entryX=1;entryY=0;entryDx=0;entryDy=0;" parent="1" source="4zSn7JIIVfaxJaeZ2S0K-80" target="o2yET6NaB_C4wVVpLFFw-2" edge="1">
          <mxGeometry width="50" height="50" relative="1" as="geometry">
            <mxPoint x="420" y="1201" as="sourcePoint" />
            <mxPoint x="960" y="240" as="targetPoint" />
            <Array as="points">
              <mxPoint x="870" y="1066" />
              <mxPoint x="870" y="239" />
            </Array>
          </mxGeometry>
        </mxCell>
        <mxCell id="2ANkcWensxIjMgZrlnyL-9" value="" style="endArrow=none;html=1;rounded=0;exitX=1.017;exitY=0.487;exitDx=0;exitDy=0;exitPerimeter=0;entryX=-0.021;entryY=0.515;entryDx=0;entryDy=0;entryPerimeter=0;" parent="1" source="o2yET6NaB_C4wVVpLFFw-1" target="o2yET6NaB_C4wVVpLFFw-3" edge="1">
          <mxGeometry width="50" height="50" relative="1" as="geometry">
            <mxPoint x="480" y="290" as="sourcePoint" />
            <mxPoint x="530" y="240" as="targetPoint" />
          </mxGeometry>
        </mxCell>
        <mxCell id="2ANkcWensxIjMgZrlnyL-10" value="" style="endArrow=none;html=1;rounded=0;exitX=0.994;exitY=0.464;exitDx=0;exitDy=0;exitPerimeter=0;entryX=0.02;entryY=0.745;entryDx=0;entryDy=0;entryPerimeter=0;" parent="1" source="o2yET6NaB_C4wVVpLFFw-16" target="o2yET6NaB_C4wVVpLFFw-3" edge="1">
          <mxGeometry width="50" height="50" relative="1" as="geometry">
            <mxPoint x="480" y="290" as="sourcePoint" />
            <mxPoint x="530" y="240" as="targetPoint" />
          </mxGeometry>
        </mxCell>
        <mxCell id="2ANkcWensxIjMgZrlnyL-11" value="" style="endArrow=none;html=1;rounded=0;exitX=0.706;exitY=0.959;exitDx=0;exitDy=0;exitPerimeter=0;entryX=-0.035;entryY=0.551;entryDx=0;entryDy=0;entryPerimeter=0;" parent="1" source="o2yET6NaB_C4wVVpLFFw-16" target="o2yET6NaB_C4wVVpLFFw-24" edge="1">
          <mxGeometry width="50" height="50" relative="1" as="geometry">
            <mxPoint x="470" y="310" as="sourcePoint" />
            <mxPoint x="520" y="260" as="targetPoint" />
          </mxGeometry>
        </mxCell>
        <mxCell id="2ANkcWensxIjMgZrlnyL-12" value="" style="endArrow=none;html=1;rounded=0;exitX=0.951;exitY=0.372;exitDx=0;exitDy=0;exitPerimeter=0;entryX=0.114;entryY=0.831;entryDx=0;entryDy=0;entryPerimeter=0;" parent="1" source="4zSn7JIIVfaxJaeZ2S0K-6" target="o2yET6NaB_C4wVVpLFFw-24" edge="1">
          <mxGeometry width="50" height="50" relative="1" as="geometry">
            <mxPoint x="530" y="380" as="sourcePoint" />
            <mxPoint x="580" y="330" as="targetPoint" />
          </mxGeometry>
        </mxCell>
        <mxCell id="2ANkcWensxIjMgZrlnyL-13" value="" style="endArrow=none;html=1;rounded=0;exitX=1.005;exitY=0.463;exitDx=0;exitDy=0;exitPerimeter=0;entryX=-0.014;entryY=0.666;entryDx=0;entryDy=0;entryPerimeter=0;" parent="1" source="4zSn7JIIVfaxJaeZ2S0K-1" target="4zSn7JIIVfaxJaeZ2S0K-6" edge="1">
          <mxGeometry width="50" height="50" relative="1" as="geometry">
            <mxPoint x="440" y="450" as="sourcePoint" />
            <mxPoint x="490" y="400" as="targetPoint" />
          </mxGeometry>
        </mxCell>
        <mxCell id="2ANkcWensxIjMgZrlnyL-14" value="" style="endArrow=none;html=1;rounded=0;entryX=0.706;entryY=1.002;entryDx=0;entryDy=0;entryPerimeter=0;exitX=0.039;exitY=0.445;exitDx=0;exitDy=0;exitPerimeter=0;" parent="1" source="4zSn7JIIVfaxJaeZ2S0K-35" target="4zSn7JIIVfaxJaeZ2S0K-1" edge="1">
          <mxGeometry width="50" height="50" relative="1" as="geometry">
            <mxPoint x="430" y="550" as="sourcePoint" />
            <mxPoint x="480" y="500" as="targetPoint" />
          </mxGeometry>
        </mxCell>
        <mxCell id="2ANkcWensxIjMgZrlnyL-15" value="" style="endArrow=none;html=1;rounded=0;exitX=0.886;exitY=0.238;exitDx=0;exitDy=0;exitPerimeter=0;entryX=0.393;entryY=1;entryDx=0;entryDy=0;entryPerimeter=0;" parent="1" source="4zSn7JIIVfaxJaeZ2S0K-35" target="o2yET6NaB_C4wVVpLFFw-2" edge="1">
          <mxGeometry width="50" height="50" relative="1" as="geometry">
            <mxPoint x="530" y="500" as="sourcePoint" />
            <mxPoint x="700" y="340" as="targetPoint" />
          </mxGeometry>
        </mxCell>
        <mxCell id="2ANkcWensxIjMgZrlnyL-16" value="" style="endArrow=none;html=1;rounded=0;entryX=0.985;entryY=0.678;entryDx=0;entryDy=0;entryPerimeter=0;exitX=0.133;exitY=0.277;exitDx=0;exitDy=0;exitPerimeter=0;" parent="1" source="4zSn7JIIVfaxJaeZ2S0K-52" target="4zSn7JIIVfaxJaeZ2S0K-35" edge="1">
          <mxGeometry width="50" height="50" relative="1" as="geometry">
            <mxPoint x="430" y="630" as="sourcePoint" />
            <mxPoint x="480" y="580" as="targetPoint" />
          </mxGeometry>
        </mxCell>
        <mxCell id="2ANkcWensxIjMgZrlnyL-17" value="" style="endArrow=none;html=1;rounded=0;entryX=-0.005;entryY=0.544;entryDx=0;entryDy=0;entryPerimeter=0;exitX=0.976;exitY=0.312;exitDx=0;exitDy=0;exitPerimeter=0;" parent="1" source="4zSn7JIIVfaxJaeZ2S0K-38" target="4zSn7JIIVfaxJaeZ2S0K-52" edge="1">
          <mxGeometry width="50" height="50" relative="1" as="geometry">
            <mxPoint x="430" y="720" as="sourcePoint" />
            <mxPoint x="480" y="670" as="targetPoint" />
          </mxGeometry>
        </mxCell>
        <mxCell id="2ANkcWensxIjMgZrlnyL-18" value="" style="endArrow=none;html=1;rounded=0;exitX=1.002;exitY=0.606;exitDx=0;exitDy=0;exitPerimeter=0;entryX=0.012;entryY=0.544;entryDx=0;entryDy=0;entryPerimeter=0;" parent="1" source="4zSn7JIIVfaxJaeZ2S0K-71" target="4zSn7JIIVfaxJaeZ2S0K-49" edge="1">
          <mxGeometry width="50" height="50" relative="1" as="geometry">
            <mxPoint x="480" y="800" as="sourcePoint" />
            <mxPoint x="530" y="750" as="targetPoint" />
          </mxGeometry>
        </mxCell>
        <mxCell id="2ANkcWensxIjMgZrlnyL-19" value="" style="endArrow=none;html=1;rounded=0;exitX=0.987;exitY=0.605;exitDx=0;exitDy=0;exitPerimeter=0;entryX=0.012;entryY=0.613;entryDx=0;entryDy=0;entryPerimeter=0;" parent="1" source="4zSn7JIIVfaxJaeZ2S0K-49" target="4zSn7JIIVfaxJaeZ2S0K-59" edge="1">
          <mxGeometry width="50" height="50" relative="1" as="geometry">
            <mxPoint x="630" y="800" as="sourcePoint" />
            <mxPoint x="680" y="750" as="targetPoint" />
          </mxGeometry>
        </mxCell>
        <mxCell id="2ANkcWensxIjMgZrlnyL-20" value="" style="endArrow=none;html=1;rounded=0;exitX=0.986;exitY=0.65;exitDx=0;exitDy=0;exitPerimeter=0;entryX=1;entryY=0.598;entryDx=0;entryDy=0;entryPerimeter=0;" parent="1" source="4zSn7JIIVfaxJaeZ2S0K-59" target="o2yET6NaB_C4wVVpLFFw-2" edge="1">
          <mxGeometry width="50" height="50" relative="1" as="geometry">
            <mxPoint x="840" y="540" as="sourcePoint" />
            <mxPoint x="890" y="490" as="targetPoint" />
            <Array as="points">
              <mxPoint x="800" y="782" />
              <mxPoint x="800" y="285" />
            </Array>
          </mxGeometry>
        </mxCell>
        <mxCell id="2ANkcWensxIjMgZrlnyL-21" value="" style="endArrow=none;html=1;rounded=0;exitX=1;exitY=0.575;exitDx=0;exitDy=0;exitPerimeter=0;entryX=1;entryY=0;entryDx=0;entryDy=0;strokeColor=light-dark(#000000,#FF0000);" parent="1" source="4zSn7JIIVfaxJaeZ2S0K-77" edge="1">
          <mxGeometry width="50" height="50" relative="1" as="geometry">
            <mxPoint x="455" y="1136" as="sourcePoint" />
            <mxPoint x="745" y="249" as="targetPoint" />
            <Array as="points">
              <mxPoint x="830" y="946" />
              <mxPoint x="830" y="250" />
            </Array>
          </mxGeometry>
        </mxCell>
      </root>
    </mxGraphModel>
  </diagram>
</mxfile>
